<?xml version="1.0" encoding="UTF-8" standalone="no"?>
<svg
   xmlns:dc="http://purl.org/dc/elements/1.1/"
   xmlns:cc="http://creativecommons.org/ns#"
   xmlns:rdf="http://www.w3.org/1999/02/22-rdf-syntax-ns#"
   xmlns:svg="http://www.w3.org/2000/svg"
   xmlns="http://www.w3.org/2000/svg"
   xmlns:sodipodi="http://sodipodi.sourceforge.net/DTD/sodipodi-0.dtd"
   xmlns:inkscape="http://www.inkscape.org/namespaces/inkscape"
   class="icon"
   height="512"
   viewBox="0 0 512 1024"
   version="1.1"
   id="svg6"
   sodipodi:docname="song_stopnext.svg"
   width="512"
   inkscape:version="0.92.1 r15371"
   inkscape:export-filename="/home/tux/Projekte/SmartBedroomPanel/resources/song_play.png"
   inkscape:export-xdpi="96"
   inkscape:export-ydpi="96">
  <metadata
     id="metadata12">
    <rdf:RDF>
      <cc:Work
         rdf:about="">
        <dc:format>image/svg+xml</dc:format>
        <dc:type
           rdf:resource="http://purl.org/dc/dcmitype/StillImage" />
        <dc:title />
      </cc:Work>
    </rdf:RDF>
  </metadata>
  <defs
     id="defs10" />
  <sodipodi:namedview
     pagecolor="#ffffff"
     bordercolor="#666666"
     borderopacity="1"
     objecttolerance="10"
     gridtolerance="10"
     guidetolerance="10"
     inkscape:pageopacity="0"
     inkscape:pageshadow="2"
     inkscape:window-width="1920"
     inkscape:window-height="1015"
     id="namedview8"
     showgrid="false"
     inkscape:pagecheckerboard="true"
     inkscape:zoom="1.5081262"
     inkscape:cx="101.47741"
     inkscape:cy="286.60496"
     inkscape:window-x="0"
     inkscape:window-y="0"
     inkscape:window-maximized="1"
     inkscape:current-layer="svg6" />
  <path
     d="m 260.032,70.976 c -245.952,0 -446.016,200.064 -446.016,446.016 0,245.952 200.064,446.016 446.016,446.016 245.952,0 446.016,-200.064 446.016,-446.016 0,-245.952 -200.064,-446.016 -446.016,-446.016 z m 0,828.032 c -210.624,0 -382.016,-171.392 -382.016,-382.016 0,-210.624 171.392,-382.016 382.016,-382.016 210.624,0 382.016,171.392 382.016,382.016 0,210.624 -171.392,382.016 -382.016,382.016 z"
     id="path2"
     inkscape:connector-curvature="0"
     style="fill:#ffffff;fill-opacity:1;stroke:#ffffff;stroke-opacity:1" />
  <path
     d="m 75.54324,643.80801 c 0,35.2 24.96,49.6 55.424,32 l 219.584,-126.784 c 30.528,-17.6 30.528,-46.4 0,-64 l -219.584,-126.848 c -30.528,-17.6 -55.424,-3.2 -55.424,32 z"
     id="path4"
     inkscape:connector-curvature="0"
     style="fill:#ffffff;fill-opacity:1;stroke:#ffffff;stroke-opacity:1" />
  <rect
     style="opacity:1;fill:#ffffff;fill-opacity:1;stroke:#ffffff;stroke-width:1.14906979;stroke-miterlimit:4;stroke-dasharray:none;stroke-opacity:1"
     id="rect4489"
     width="66.072594"
     height="332.22531"
     x="394.37363"
     y="350.87936"
     rx="7.0992932"
     ry="32.009914" />
</svg>
