<?xml version="1.0" encoding="UTF-8" standalone="no"?>
<svg
   xmlns:dc="http://purl.org/dc/elements/1.1/"
   xmlns:cc="http://creativecommons.org/ns#"
   xmlns:rdf="http://www.w3.org/1999/02/22-rdf-syntax-ns#"
   xmlns:svg="http://www.w3.org/2000/svg"
   xmlns="http://www.w3.org/2000/svg"
   xmlns:sodipodi="http://sodipodi.sourceforge.net/DTD/sodipodi-0.dtd"
   xmlns:inkscape="http://www.inkscape.org/namespaces/inkscape"
   class="icon"
   height="512"
   viewBox="0 0 512 1024"
   version="1.1"
   id="svg4"
   sodipodi:docname="song_title.svg"
   width="512"
   inkscape:version="0.92.1 r15371">
  <metadata
     id="metadata10">
    <rdf:RDF>
      <cc:Work
         rdf:about="">
        <dc:format>image/svg+xml</dc:format>
        <dc:type
           rdf:resource="http://purl.org/dc/dcmitype/StillImage" />
        <dc:title></dc:title>
      </cc:Work>
    </rdf:RDF>
  </metadata>
  <defs
     id="defs8" />
  <sodipodi:namedview
     pagecolor="#ffffff"
     bordercolor="#666666"
     borderopacity="1"
     objecttolerance="10"
     gridtolerance="10"
     guidetolerance="10"
     inkscape:pageopacity="0"
     inkscape:pageshadow="2"
     inkscape:window-width="1920"
     inkscape:window-height="1015"
     id="namedview6"
     showgrid="false"
     inkscape:pagecheckerboard="true"
     inkscape:zoom="0.75112899"
     inkscape:cx="249.0845"
     inkscape:cy="290.6877"
     inkscape:window-x="0"
     inkscape:window-y="0"
     inkscape:window-maximized="1"
     inkscape:current-layer="svg4" />
  <path
     d="m 692.66127,80.196533 a 273.4913,273.4913 0 0 0 -386.9606,0 C 258.01339,127.9189 227.94128,196.12213 221.62508,260.81635 L 512.1935,551.57192 c 64.41351,-6.77237 133.34192,-36.96145 180.46777,-84.14577 106.84903,-106.93087 106.84903,-280.29875 0,-387.229617 z M -129.61391,741.72451 a 114.18279,114.18279 0 0 0 -21.05398,132.45298 32.154117,32.154117 0 0 0 -5.45065,4.37455 l -90.14616,90.19294 c -12.37506,12.42185 -13.18213,32.56352 -1.09948,45.25442 a 32.072241,32.072241 0 0 0 45.94448,0.6082 l 90.6959,-90.7544 a 32.306174,32.306174 0 0 0 3.12301,-3.61427 113.98395,113.98395 0 0 0 139.19024,-17.21748 L 421.29876,571.09364 202.41917,352.21405 Z"
     id="path2"
     inkscape:connector-curvature="0"
     style="fill:#ffffff;fill-opacity:1;stroke:#ffffff;stroke-opacity:1" />
</svg>
