<?xml version="1.0" encoding="UTF-8" standalone="no"?>
<svg
   xmlns:dc="http://purl.org/dc/elements/1.1/"
   xmlns:cc="http://creativecommons.org/ns#"
   xmlns:rdf="http://www.w3.org/1999/02/22-rdf-syntax-ns#"
   xmlns:svg="http://www.w3.org/2000/svg"
   xmlns="http://www.w3.org/2000/svg"
   xmlns:sodipodi="http://sodipodi.sourceforge.net/DTD/sodipodi-0.dtd"
   xmlns:inkscape="http://www.inkscape.org/namespaces/inkscape"
   class="icon"
   height="512"
   viewBox="0 0 512 1024"
   version="1.1"
   id="svg4"
   sodipodi:docname="song_album.svg"
   width="512"
   inkscape:version="0.92.1 r15371">
  <metadata
     id="metadata10">
    <rdf:RDF>
      <cc:Work
         rdf:about="">
        <dc:format>image/svg+xml</dc:format>
        <dc:type
           rdf:resource="http://purl.org/dc/dcmitype/StillImage" />
        <dc:title></dc:title>
      </cc:Work>
    </rdf:RDF>
  </metadata>
  <defs
     id="defs8" />
  <sodipodi:namedview
     pagecolor="#ffffff"
     bordercolor="#666666"
     borderopacity="1"
     objecttolerance="10"
     gridtolerance="10"
     guidetolerance="10"
     inkscape:pageopacity="0"
     inkscape:pageshadow="2"
     inkscape:window-width="1920"
     inkscape:window-height="1015"
     id="namedview6"
     showgrid="false"
     inkscape:pagecheckerboard="true"
     inkscape:zoom="0.75406309"
     inkscape:cx="220.64985"
     inkscape:cy="197.07559"
     inkscape:window-x="0"
     inkscape:window-y="0"
     inkscape:window-maximized="1"
     inkscape:current-layer="svg4" />
  <path
     d="M 260,85.333333 C 24.48,85.333333 -166.66667,276.48 -166.66667,512 -166.66667,747.52 24.48,938.66667 260,938.66667 495.52,938.66667 686.66667,747.52 686.66667,512 686.66667,276.48 495.52,85.333333 260,85.333333 Z M 260,704 C 153.76,704 68,618.24 68,512 68,405.76 153.76,320 260,320 c 106.24,0 192,85.76 192,192 0,106.24 -85.76,192 -192,192 z m 0,-234.66667 c -23.46667,0 -42.66667,19.2 -42.66667,42.66667 0,23.46667 19.2,42.66667 42.66667,42.66667 23.46667,0 42.66667,-19.2 42.66667,-42.66667 0,-23.46667 -19.2,-42.66667 -42.66667,-42.66667 z"
     id="path2"
     inkscape:connector-curvature="0"
     style="fill:#ffffff;fill-opacity:1;stroke:#ffffff;stroke-opacity:1" />
</svg>
